<svg width="521" height="800" viewBox="0 0 521 800" fill="none" xmlns="http://www.w3.org/2000/svg">
<mask id="mask0_4090_3943" style="mask-type:alpha" maskUnits="userSpaceOnUse" x="0" y="0" width="521" height="800">
<rect y="0.262329" width="520.138" height="799" fill="#F63A3A"/>
</mask>
<g mask="url(#mask0_4090_3943)">
<rect x="63" y="57.2623" width="28" height="28" fill="#BDC2BF"/>
<rect x="91" y="314.262" width="28" height="28" fill="#BDC2BF"/>
<rect x="120" y="286.262" width="29" height="28" fill="#BDC2BF"/>
<rect x="148" y="286.262" width="29" height="28" fill="#989C94"/>
<path d="M93 599.262V684.262H178L93 599.262Z" fill="#989C94"/>
<circle cx="277" cy="557.262" r="14" fill="#BDC2BF"/>
<path d="M177.138 285.814L177.138 257.262L148.587 257.262L148.587 285.814L177.138 285.814Z" stroke="black" stroke-miterlimit="10"/>
<path d="M177.138 314.366L177.138 285.814L148.587 285.814L148.587 314.366L177.138 314.366Z" stroke="black" stroke-miterlimit="10"/>
<path d="M177.138 342.918L177.138 314.366L148.587 314.366L148.587 342.918L177.138 342.918Z" stroke="black" stroke-miterlimit="10"/>
<path d="M177.138 371.469L177.138 342.917L148.587 342.917L148.587 371.469L177.138 371.469Z" stroke="black" stroke-miterlimit="10"/>
<path d="M177.138 400.021L177.138 371.469L148.587 371.469L148.587 400.021L177.138 400.021Z" stroke="black" stroke-miterlimit="10"/>
<path d="M177.138 428.573L177.138 400.021L148.587 400.021L148.587 428.573L177.138 428.573Z" stroke="black" stroke-miterlimit="10"/>
<path d="M177.138 457.134L177.138 428.583L148.587 428.583L148.587 457.134L177.138 457.134Z" stroke="black" stroke-miterlimit="10"/>
<path d="M177.138 485.686L177.138 457.134L148.587 457.134L148.587 485.686L177.138 485.686Z" stroke="black" stroke-miterlimit="10"/>
<path d="M177.138 514.238L177.138 485.686L148.587 485.686L148.587 514.238L177.138 514.238Z" stroke="black" stroke-miterlimit="10"/>
<path d="M177.138 542.789L177.138 514.238L148.587 514.238L148.587 542.789L177.138 542.789Z" stroke="black" stroke-miterlimit="10"/>
<path d="M177.138 571.341L177.138 542.789L148.587 542.789L148.587 571.341L177.138 571.341Z" stroke="black" stroke-miterlimit="10"/>
<path d="M177.138 599.893L177.138 571.341L148.587 571.341L148.587 599.893L177.138 599.893Z" stroke="black" stroke-miterlimit="10"/>
<path d="M177.138 628.445L177.138 599.893L148.587 599.893L148.587 628.445L177.138 628.445Z" stroke="black" stroke-miterlimit="10"/>
<path d="M177.138 656.996L177.138 628.445L148.587 628.445L148.587 656.996L177.138 656.996Z" stroke="black" stroke-miterlimit="10"/>
<path d="M177.138 685.548L177.138 656.996L148.587 656.996L148.587 685.548L177.138 685.548Z" stroke="black" stroke-miterlimit="10"/>
<path d="M177.138 714.1L177.138 685.548L148.587 685.548L148.587 714.1L177.138 714.1Z" stroke="black" stroke-miterlimit="10"/>
<path d="M177.138 742.651L177.138 714.1L148.587 714.1L148.587 742.651L177.138 742.651Z" stroke="black" stroke-miterlimit="10"/>
<path d="M177.138 771.213L177.138 742.661L148.587 742.661L148.587 771.213L177.138 771.213Z" stroke="black" stroke-miterlimit="10"/>
<path d="M177.138 799.765L177.138 771.213L148.587 771.213L148.587 799.765L177.138 799.765Z" stroke="black" stroke-miterlimit="10"/>
<path d="M148.587 285.814L148.587 257.262L120.036 257.262L120.036 285.814L148.587 285.814Z" stroke="black" stroke-miterlimit="10"/>
<path d="M148.587 314.366L148.587 285.814L120.036 285.814L120.036 314.366L148.587 314.366Z" stroke="black" stroke-miterlimit="10"/>
<path d="M148.587 342.917L148.587 314.366L120.036 314.366L120.036 342.917L148.587 342.917Z" stroke="black" stroke-miterlimit="10"/>
<path d="M148.587 371.469L148.587 342.917L120.036 342.917L120.036 371.469L148.587 371.469Z" stroke="black" stroke-miterlimit="10"/>
<path d="M148.587 400.021L148.587 371.469L120.036 371.469L120.036 400.021L148.587 400.021Z" stroke="black" stroke-miterlimit="10"/>
<path d="M148.587 428.573L148.587 400.021L120.036 400.021L120.036 428.573L148.587 428.573Z" stroke="black" stroke-miterlimit="10"/>
<path d="M148.587 457.134L148.587 428.583L120.036 428.583L120.036 457.134L148.587 457.134Z" stroke="black" stroke-miterlimit="10"/>
<path d="M148.587 485.686L148.587 457.134L120.036 457.134L120.036 485.686L148.587 485.686Z" stroke="black" stroke-miterlimit="10"/>
<path d="M148.587 514.238L148.587 485.686L120.036 485.686L120.036 514.238L148.587 514.238Z" stroke="black" stroke-miterlimit="10"/>
<path d="M148.587 542.789L148.587 514.238L120.036 514.238L120.036 542.789L148.587 542.789Z" stroke="black" stroke-miterlimit="10"/>
<path d="M148.587 571.341L148.587 542.789L120.036 542.789L120.036 571.341L148.587 571.341Z" stroke="black" stroke-miterlimit="10"/>
<path d="M148.587 599.893L148.587 571.341L120.036 571.341L120.036 599.893L148.587 599.893Z" stroke="black" stroke-miterlimit="10"/>
<path d="M148.587 628.445L148.587 599.893L120.036 599.893L120.036 628.445L148.587 628.445Z" stroke="black" stroke-miterlimit="10"/>
<path d="M148.587 656.996L148.587 628.445L120.036 628.445L120.036 656.996L148.587 656.996Z" stroke="black" stroke-miterlimit="10"/>
<path d="M148.587 685.548L148.587 656.996L120.036 656.996L120.036 685.548L148.587 685.548Z" stroke="black" stroke-miterlimit="10"/>
<path d="M148.587 714.1L148.587 685.548L120.036 685.548L120.036 714.1L148.587 714.1Z" stroke="black" stroke-miterlimit="10"/>
<path d="M148.587 742.651L148.587 714.1L120.036 714.1L120.036 742.651L148.587 742.651Z" stroke="black" stroke-miterlimit="10"/>
<path d="M148.587 771.213L148.587 742.661L120.036 742.661L120.036 771.213L148.587 771.213Z" stroke="black" stroke-miterlimit="10"/>
<path d="M148.587 799.765L148.587 771.213L120.036 771.213L120.036 799.765L148.587 799.765Z" stroke="black" stroke-miterlimit="10"/>
<path d="M120.036 285.814L120.036 257.262L91.4855 257.262L91.4855 285.814L120.036 285.814Z" stroke="black" stroke-miterlimit="10"/>
<path d="M120.036 314.366L120.036 285.814L91.4855 285.814L91.4855 314.366L120.036 314.366Z" stroke="black" stroke-miterlimit="10"/>
<path d="M120.036 342.917L120.036 314.366L91.4855 314.366L91.4855 342.917L120.036 342.917Z" stroke="black" stroke-miterlimit="10"/>
<path d="M120.036 371.469L120.036 342.917L91.4855 342.917L91.4855 371.469L120.036 371.469Z" stroke="black" stroke-miterlimit="10"/>
<path d="M120.036 400.021L120.036 371.469L91.4855 371.469L91.4855 400.021L120.036 400.021Z" stroke="black" stroke-miterlimit="10"/>
<path d="M120.036 428.573L120.036 400.021L91.4855 400.021L91.4855 428.573L120.036 428.573Z" stroke="black" stroke-miterlimit="10"/>
<path d="M120.036 457.134L120.036 428.583L91.4855 428.583L91.4855 457.134L120.036 457.134Z" stroke="black" stroke-miterlimit="10"/>
<path d="M120.036 485.686L120.036 457.134L91.4855 457.134L91.4855 485.686L120.036 485.686Z" stroke="black" stroke-miterlimit="10"/>
<path d="M120.036 514.238L120.036 485.686L91.4855 485.686L91.4855 514.238L120.036 514.238Z" stroke="black" stroke-miterlimit="10"/>
<path d="M120.036 542.789L120.036 514.238L91.4855 514.238L91.4855 542.789L120.036 542.789Z" stroke="black" stroke-miterlimit="10"/>
<path d="M120.036 571.341L120.036 542.789L91.4855 542.789L91.4855 571.341L120.036 571.341Z" stroke="black" stroke-miterlimit="10"/>
<path d="M120.036 599.893L120.036 571.341L91.4855 571.341L91.4855 599.893L120.036 599.893Z" stroke="black" stroke-miterlimit="10"/>
<path d="M120.036 628.445L120.036 599.893L91.4855 599.893L91.4855 628.445L120.036 628.445Z" stroke="black" stroke-miterlimit="10"/>
<path d="M120.036 656.996L120.036 628.445L91.4855 628.445L91.4855 656.996L120.036 656.996Z" stroke="black" stroke-miterlimit="10"/>
<path d="M120.036 685.548L120.036 656.996L91.4855 656.996L91.4855 685.548L120.036 685.548Z" stroke="black" stroke-miterlimit="10"/>
<path d="M120.036 714.1L120.036 685.548L91.4853 685.548L91.4853 714.1L120.036 714.1Z" stroke="black" stroke-miterlimit="10"/>
<path d="M120.036 742.651L120.036 714.1L91.4853 714.1L91.4853 742.651L120.036 742.651Z" stroke="black" stroke-miterlimit="10"/>
<path d="M120.036 771.213L120.036 742.661L91.4853 742.661L91.4853 771.213L120.036 771.213Z" stroke="black" stroke-miterlimit="10"/>
<path d="M120.036 799.765L120.036 771.213L91.4853 771.213L91.4853 799.765L120.036 799.765Z" stroke="black" stroke-miterlimit="10"/>
<path d="M91.4854 285.814L91.4854 257.262L62.9345 257.262L62.9345 285.814L91.4854 285.814Z" stroke="black" stroke-miterlimit="10"/>
<path d="M91.4854 314.366L91.4854 285.814L62.9345 285.814L62.9345 314.366L91.4854 314.366Z" stroke="black" stroke-miterlimit="10"/>
<path d="M91.4854 342.917L91.4854 314.366L62.9345 314.366L62.9345 342.917L91.4854 342.917Z" stroke="black" stroke-miterlimit="10"/>
<path d="M91.4854 371.469L91.4854 342.917L62.9345 342.917L62.9345 371.469L91.4854 371.469Z" stroke="black" stroke-miterlimit="10"/>
<path d="M91.4854 400.021L91.4854 371.469L62.9345 371.469L62.9345 400.021L91.4854 400.021Z" stroke="black" stroke-miterlimit="10"/>
<path d="M91.4854 428.573L91.4854 400.021L62.9345 400.021L62.9345 428.573L91.4854 428.573Z" stroke="black" stroke-miterlimit="10"/>
<path d="M91.4854 457.134L91.4854 428.583L62.9345 428.583L62.9345 457.134L91.4854 457.134Z" stroke="black" stroke-miterlimit="10"/>
<path d="M91.4854 485.686L91.4854 457.134L62.9345 457.134L62.9345 485.686L91.4854 485.686Z" stroke="black" stroke-miterlimit="10"/>
<path d="M91.4854 514.238L91.4854 485.686L62.9345 485.686L62.9345 514.238L91.4854 514.238Z" stroke="black" stroke-miterlimit="10"/>
<path d="M91.4854 542.789L91.4854 514.238L62.9345 514.238L62.9345 542.789L91.4854 542.789Z" stroke="black" stroke-miterlimit="10"/>
<path d="M91.4854 571.341L91.4854 542.789L62.9345 542.789L62.9345 571.341L91.4854 571.341Z" stroke="black" stroke-miterlimit="10"/>
<path d="M91.4854 599.893L91.4854 571.341L62.9345 571.341L62.9345 599.893L91.4854 599.893Z" stroke="black" stroke-miterlimit="10"/>
<path d="M91.4854 628.445L91.4854 599.893L62.9345 599.893L62.9345 628.445L91.4854 628.445Z" stroke="black" stroke-miterlimit="10"/>
<path d="M91.4854 656.996L91.4854 628.445L62.9345 628.445L62.9345 656.996L91.4854 656.996Z" stroke="black" stroke-miterlimit="10"/>
<path d="M91.4854 685.548L91.4854 656.996L62.9345 656.996L62.9345 685.548L91.4854 685.548Z" stroke="black" stroke-miterlimit="10"/>
<path d="M91.4854 714.1L91.4854 685.548L62.9345 685.548L62.9345 714.1L91.4854 714.1Z" stroke="black" stroke-miterlimit="10"/>
<path d="M91.4854 742.651L91.4854 714.1L62.9345 714.1L62.9345 742.651L91.4854 742.651Z" stroke="black" stroke-miterlimit="10"/>
<path d="M91.4854 771.213L91.4854 742.661L62.9345 742.661L62.9345 771.213L91.4854 771.213Z" stroke="black" stroke-miterlimit="10"/>
<path d="M91.4854 799.765L91.4854 771.213L62.9345 771.213L62.9345 799.765L91.4854 799.765Z" stroke="black" stroke-miterlimit="10"/>
<path d="M62.9346 285.814L62.9346 257.262L34.3837 257.262L34.3837 285.814L62.9346 285.814Z" stroke="black" stroke-miterlimit="10"/>
<path d="M62.9346 314.366L62.9346 285.814L34.3837 285.814L34.3837 314.366L62.9346 314.366Z" stroke="black" stroke-miterlimit="10"/>
<path d="M62.9346 342.917L62.9346 314.366L34.3837 314.366L34.3837 342.917L62.9346 342.917Z" stroke="black" stroke-miterlimit="10"/>
<path d="M62.9346 371.469L62.9346 342.917L34.3837 342.917L34.3837 371.469L62.9346 371.469Z" stroke="black" stroke-miterlimit="10"/>
<path d="M62.9346 400.021L62.9346 371.469L34.3837 371.469L34.3837 400.021L62.9346 400.021Z" stroke="black" stroke-miterlimit="10"/>
<path d="M62.9346 428.573L62.9346 400.021L34.3837 400.021L34.3837 428.573L62.9346 428.573Z" stroke="black" stroke-miterlimit="10"/>
<path d="M62.9346 457.134L62.9346 428.583L34.3837 428.583L34.3837 457.134L62.9346 457.134Z" stroke="black" stroke-miterlimit="10"/>
<path d="M62.9346 485.686L62.9346 457.134L34.3837 457.134L34.3837 485.686L62.9346 485.686Z" stroke="black" stroke-miterlimit="10"/>
<path d="M62.9346 514.238L62.9346 485.686L34.3837 485.686L34.3837 514.238L62.9346 514.238Z" stroke="black" stroke-miterlimit="10"/>
<path d="M62.9346 542.789L62.9346 514.238L34.3837 514.238L34.3837 542.789L62.9346 542.789Z" stroke="black" stroke-miterlimit="10"/>
<path d="M62.9346 571.341L62.9346 542.789L34.3837 542.789L34.3837 571.341L62.9346 571.341Z" stroke="black" stroke-miterlimit="10"/>
<path d="M62.9346 599.893L62.9346 571.341L34.3837 571.341L34.3837 599.893L62.9346 599.893Z" stroke="black" stroke-miterlimit="10"/>
<path d="M62.9346 628.445L62.9346 599.893L34.3837 599.893L34.3837 628.445L62.9346 628.445Z" stroke="black" stroke-miterlimit="10"/>
<path d="M62.9346 656.996L62.9346 628.445L34.3837 628.445L34.3837 656.996L62.9346 656.996Z" stroke="black" stroke-miterlimit="10"/>
<path d="M62.9346 685.548L62.9346 656.996L34.3837 656.996L34.3837 685.548L62.9346 685.548Z" stroke="black" stroke-miterlimit="10"/>
<path d="M62.9346 714.1L62.9346 685.548L34.3837 685.548L34.3837 714.1L62.9346 714.1Z" stroke="black" stroke-miterlimit="10"/>
<path d="M62.9346 742.651L62.9346 714.1L34.3837 714.1L34.3837 742.651L62.9346 742.651Z" stroke="black" stroke-miterlimit="10"/>
<path d="M62.9346 771.213L62.9346 742.661L34.3837 742.661L34.3837 771.213L62.9346 771.213Z" stroke="black" stroke-miterlimit="10"/>
<path d="M62.9346 799.765L62.9346 771.213L34.3837 771.213L34.3837 799.765L62.9346 799.765Z" stroke="black" stroke-miterlimit="10"/>
<path d="M34.3838 285.814L34.3838 257.262L5.83296 257.262L5.83296 285.814L34.3838 285.814Z" stroke="black" stroke-miterlimit="10"/>
<path d="M34.3838 314.366L34.3838 285.814L5.83296 285.814L5.83296 314.366L34.3838 314.366Z" stroke="black" stroke-miterlimit="10"/>
<path d="M34.3838 342.917L34.3838 314.366L5.83296 314.366L5.83296 342.917L34.3838 342.917Z" stroke="black" stroke-miterlimit="10"/>
<path d="M34.3838 371.469L34.3838 342.917L5.83296 342.917L5.83296 371.469L34.3838 371.469Z" stroke="black" stroke-miterlimit="10"/>
<path d="M34.3838 400.021L34.3838 371.469L5.83296 371.469L5.83296 400.021L34.3838 400.021Z" stroke="black" stroke-miterlimit="10"/>
<path d="M34.3838 428.573L34.3838 400.021L5.83296 400.021L5.83296 428.573L34.3838 428.573Z" stroke="black" stroke-miterlimit="10"/>
<path d="M34.3838 457.134L34.3838 428.583L5.83296 428.583L5.83296 457.134L34.3838 457.134Z" stroke="black" stroke-miterlimit="10"/>
<path d="M34.3838 485.686L34.3838 457.134L5.83296 457.134L5.83296 485.686L34.3838 485.686Z" stroke="black" stroke-miterlimit="10"/>
<path d="M34.3838 514.238L34.3838 485.686L5.83296 485.686L5.83296 514.238L34.3838 514.238Z" stroke="black" stroke-miterlimit="10"/>
<path d="M34.3838 542.789L34.3838 514.238L5.83296 514.238L5.83296 542.789L34.3838 542.789Z" stroke="black" stroke-miterlimit="10"/>
<path d="M34.3838 571.341L34.3838 542.789L5.83296 542.789L5.83296 571.341L34.3838 571.341Z" stroke="black" stroke-miterlimit="10"/>
<path d="M34.3838 599.893L34.3838 571.341L5.83296 571.341L5.83296 599.893L34.3838 599.893Z" stroke="black" stroke-miterlimit="10"/>
<path d="M34.3838 628.445L34.3838 599.893L5.83296 599.893L5.83296 628.445L34.3838 628.445Z" stroke="black" stroke-miterlimit="10"/>
<path d="M34.3838 656.996L34.3838 628.445L5.83296 628.445L5.83296 656.996L34.3838 656.996Z" stroke="black" stroke-miterlimit="10"/>
<path d="M34.3838 685.548L34.3838 656.996L5.83296 656.996L5.83296 685.548L34.3838 685.548Z" stroke="black" stroke-miterlimit="10"/>
<path d="M34.3838 714.1L34.3838 685.548L5.83296 685.548L5.83296 714.1L34.3838 714.1Z" stroke="black" stroke-miterlimit="10"/>
<path d="M34.3838 742.651L34.3838 714.1L5.83296 714.1L5.83296 742.651L34.3838 742.651Z" stroke="black" stroke-miterlimit="10"/>
<path d="M34.3838 771.213L34.3838 742.661L5.83296 742.661L5.83296 771.213L34.3838 771.213Z" stroke="black" stroke-miterlimit="10"/>
<path d="M34.3838 799.765L34.3838 771.213L5.83296 771.213L5.83296 799.765L34.3838 799.765Z" stroke="black" stroke-miterlimit="10"/>
<path d="M5.823 285.814L5.823 257.262L-22.7278 257.262L-22.7278 285.814L5.823 285.814Z" stroke="black" stroke-miterlimit="10"/>
<path d="M5.823 314.366L5.823 285.814L-22.7278 285.814L-22.7278 314.366L5.823 314.366Z" stroke="black" stroke-miterlimit="10"/>
<path d="M5.823 342.917L5.823 314.366L-22.7278 314.366L-22.7278 342.917L5.823 342.917Z" stroke="black" stroke-miterlimit="10"/>
<path d="M5.823 371.469L5.823 342.917L-22.7278 342.917L-22.7278 371.469L5.823 371.469Z" stroke="black" stroke-miterlimit="10"/>
<path d="M5.823 400.021L5.823 371.469L-22.7278 371.469L-22.7278 400.021L5.823 400.021Z" stroke="black" stroke-miterlimit="10"/>
<path d="M5.823 428.573L5.823 400.021L-22.7278 400.021L-22.7278 428.573L5.823 428.573Z" stroke="black" stroke-miterlimit="10"/>
<path d="M5.823 457.134L5.823 428.583L-22.7278 428.583L-22.7278 457.134L5.823 457.134Z" stroke="black" stroke-miterlimit="10"/>
<path d="M5.823 485.686L5.823 457.134L-22.7278 457.134L-22.7278 485.686L5.823 485.686Z" stroke="black" stroke-miterlimit="10"/>
<path d="M5.823 514.238L5.823 485.686L-22.7278 485.686L-22.7278 514.238L5.823 514.238Z" stroke="black" stroke-miterlimit="10"/>
<path d="M5.823 542.789L5.823 514.238L-22.7278 514.238L-22.7278 542.789L5.823 542.789Z" stroke="black" stroke-miterlimit="10"/>
<path d="M5.823 571.341L5.823 542.789L-22.7278 542.789L-22.7278 571.341L5.823 571.341Z" stroke="black" stroke-miterlimit="10"/>
<path d="M5.823 599.893L5.823 571.341L-22.7278 571.341L-22.7278 599.893L5.823 599.893Z" stroke="black" stroke-miterlimit="10"/>
<path d="M5.823 628.445L5.823 599.893L-22.7278 599.893L-22.7278 628.445L5.823 628.445Z" stroke="black" stroke-miterlimit="10"/>
<path d="M5.823 656.996L5.823 628.445L-22.7278 628.445L-22.7278 656.996L5.823 656.996Z" stroke="black" stroke-miterlimit="10"/>
<path d="M5.823 685.548L5.823 656.996L-22.7278 656.996L-22.7278 685.548L5.823 685.548Z" stroke="black" stroke-miterlimit="10"/>
<path d="M5.823 714.1L5.823 685.548L-22.7278 685.548L-22.7278 714.1L5.823 714.1Z" stroke="black" stroke-miterlimit="10"/>
<path d="M5.823 742.651L5.823 714.1L-22.7278 714.1L-22.7278 742.651L5.823 742.651Z" stroke="black" stroke-miterlimit="10"/>
<path d="M5.823 771.213L5.823 742.661L-22.7278 742.661L-22.7278 771.213L5.823 771.213Z" stroke="black" stroke-miterlimit="10"/>
<path d="M5.823 799.765L5.823 771.213L-22.7278 771.213L-22.7278 799.765L5.823 799.765Z" stroke="black" stroke-miterlimit="10"/>
<path d="M320.138 542.814L320.138 514.262L291.587 514.262L291.587 542.814L320.138 542.814Z" stroke="black" stroke-miterlimit="10"/>
<path d="M320.138 571.366L320.138 542.814L291.587 542.814L291.587 571.366L320.138 571.366Z" stroke="black" stroke-miterlimit="10"/>
<path d="M320.138 599.918L320.138 571.366L291.587 571.366L291.587 599.918L320.138 599.918Z" stroke="black" stroke-miterlimit="10"/>
<path d="M320.138 628.469L320.138 599.917L291.587 599.917L291.587 628.469L320.138 628.469Z" stroke="black" stroke-miterlimit="10"/>
<path d="M320.138 657.021L320.138 628.469L291.587 628.469L291.587 657.021L320.138 657.021Z" stroke="black" stroke-miterlimit="10"/>
<path d="M320.138 685.573L320.138 657.021L291.587 657.021L291.587 685.573L320.138 685.573Z" stroke="black" stroke-miterlimit="10"/>
<path d="M320.138 714.134L320.138 685.583L291.587 685.583L291.587 714.134L320.138 714.134Z" stroke="black" stroke-miterlimit="10"/>
<path d="M320.138 742.686L320.138 714.134L291.587 714.134L291.587 742.686L320.138 742.686Z" stroke="black" stroke-miterlimit="10"/>
<path d="M320.138 771.238L320.138 742.686L291.587 742.686L291.587 771.238L320.138 771.238Z" stroke="black" stroke-miterlimit="10"/>
<path d="M320.138 799.789L320.138 771.238L291.587 771.238L291.587 799.789L320.138 799.789Z" stroke="black" stroke-miterlimit="10"/>
<path d="M291.587 542.814L291.587 514.262L263.036 514.262L263.036 542.814L291.587 542.814Z" stroke="black" stroke-miterlimit="10"/>
<path d="M291.587 571.366L291.587 542.814L263.036 542.814L263.036 571.366L291.587 571.366Z" stroke="black" stroke-miterlimit="10"/>
<path d="M291.587 599.917L291.587 571.366L263.036 571.366L263.036 599.917L291.587 599.917Z" stroke="black" stroke-miterlimit="10"/>
<path d="M291.587 628.469L291.587 599.917L263.036 599.917L263.036 628.469L291.587 628.469Z" stroke="black" stroke-miterlimit="10"/>
<path d="M291.587 657.021L291.587 628.469L263.036 628.469L263.036 657.021L291.587 657.021Z" stroke="black" stroke-miterlimit="10"/>
<path d="M291.587 685.573L291.587 657.021L263.036 657.021L263.036 685.573L291.587 685.573Z" stroke="black" stroke-miterlimit="10"/>
<path d="M291.587 714.134L291.587 685.583L263.036 685.583L263.036 714.134L291.587 714.134Z" stroke="black" stroke-miterlimit="10"/>
<path d="M291.587 742.686L291.587 714.134L263.036 714.134L263.036 742.686L291.587 742.686Z" stroke="black" stroke-miterlimit="10"/>
<path d="M291.587 771.238L291.587 742.686L263.036 742.686L263.036 771.238L291.587 771.238Z" stroke="black" stroke-miterlimit="10"/>
<path d="M291.587 799.789L291.587 771.238L263.036 771.238L263.036 799.789L291.587 799.789Z" stroke="black" stroke-miterlimit="10"/>
<path d="M263.036 542.814L263.036 514.262L234.486 514.262L234.486 542.814L263.036 542.814Z" stroke="black" stroke-miterlimit="10"/>
<path d="M263.036 571.366L263.036 542.814L234.486 542.814L234.486 571.366L263.036 571.366Z" stroke="black" stroke-miterlimit="10"/>
<path d="M263.036 599.917L263.036 571.366L234.486 571.366L234.486 599.917L263.036 599.917Z" stroke="black" stroke-miterlimit="10"/>
<path d="M263.036 628.469L263.036 599.917L234.486 599.917L234.486 628.469L263.036 628.469Z" stroke="black" stroke-miterlimit="10"/>
<path d="M263.036 657.021L263.036 628.469L234.486 628.469L234.486 657.021L263.036 657.021Z" stroke="black" stroke-miterlimit="10"/>
<path d="M263.036 685.573L263.036 657.021L234.486 657.021L234.486 685.573L263.036 685.573Z" stroke="black" stroke-miterlimit="10"/>
<path d="M263.036 714.134L263.036 685.583L234.486 685.583L234.486 714.134L263.036 714.134Z" stroke="black" stroke-miterlimit="10"/>
<path d="M263.036 742.686L263.036 714.134L234.486 714.134L234.486 742.686L263.036 742.686Z" stroke="black" stroke-miterlimit="10"/>
<path d="M263.036 771.238L263.036 742.686L234.485 742.686L234.485 771.238L263.036 771.238Z" stroke="black" stroke-miterlimit="10"/>
<path d="M263.036 799.789L263.036 771.238L234.485 771.238L234.485 799.789L263.036 799.789Z" stroke="black" stroke-miterlimit="10"/>
<path d="M234.485 542.814L234.485 514.262L205.935 514.262L205.935 542.814L234.485 542.814Z" stroke="black" stroke-miterlimit="10"/>
<path d="M234.485 571.366L234.485 542.814L205.935 542.814L205.935 571.366L234.485 571.366Z" stroke="black" stroke-miterlimit="10"/>
<path d="M234.485 599.917L234.485 571.366L205.935 571.366L205.935 599.917L234.485 599.917Z" stroke="black" stroke-miterlimit="10"/>
<path d="M234.485 628.469L234.485 599.917L205.935 599.917L205.935 628.469L234.485 628.469Z" stroke="black" stroke-miterlimit="10"/>
<path d="M234.485 657.021L234.485 628.469L205.935 628.469L205.935 657.021L234.485 657.021Z" stroke="black" stroke-miterlimit="10"/>
<path d="M234.485 685.573L234.485 657.021L205.935 657.021L205.935 685.573L234.485 685.573Z" stroke="black" stroke-miterlimit="10"/>
<path d="M234.485 714.134L234.485 685.583L205.935 685.583L205.935 714.134L234.485 714.134Z" stroke="black" stroke-miterlimit="10"/>
<path d="M234.485 742.686L234.485 714.134L205.935 714.134L205.935 742.686L234.485 742.686Z" stroke="black" stroke-miterlimit="10"/>
<path d="M234.485 771.238L234.485 742.686L205.935 742.686L205.935 771.238L234.485 771.238Z" stroke="black" stroke-miterlimit="10"/>
<path d="M234.485 799.789L234.485 771.238L205.935 771.238L205.935 799.789L234.485 799.789Z" stroke="black" stroke-miterlimit="10"/>
<path d="M205.935 542.814L205.935 514.262L177.384 514.262L177.384 542.814L205.935 542.814Z" stroke="black" stroke-miterlimit="10"/>
<path d="M205.935 571.366L205.935 542.814L177.384 542.814L177.384 571.366L205.935 571.366Z" stroke="black" stroke-miterlimit="10"/>
<path d="M205.935 599.917L205.935 571.366L177.384 571.366L177.384 599.917L205.935 599.917Z" stroke="black" stroke-miterlimit="10"/>
<path d="M205.935 628.469L205.935 599.917L177.384 599.917L177.384 628.469L205.935 628.469Z" stroke="black" stroke-miterlimit="10"/>
<path d="M205.935 657.021L205.935 628.469L177.384 628.469L177.384 657.021L205.935 657.021Z" stroke="black" stroke-miterlimit="10"/>
<path d="M205.935 685.573L205.935 657.021L177.384 657.021L177.384 685.573L205.935 685.573Z" stroke="black" stroke-miterlimit="10"/>
<path d="M205.935 714.134L205.935 685.583L177.384 685.583L177.384 714.134L205.935 714.134Z" stroke="black" stroke-miterlimit="10"/>
<path d="M205.935 742.686L205.935 714.134L177.384 714.134L177.384 742.686L205.935 742.686Z" stroke="black" stroke-miterlimit="10"/>
<path d="M205.935 771.238L205.935 742.686L177.384 742.686L177.384 771.238L205.935 771.238Z" stroke="black" stroke-miterlimit="10"/>
<path d="M205.935 799.789L205.935 771.238L177.384 771.238L177.384 799.789L205.935 799.789Z" stroke="black" stroke-miterlimit="10"/>
<path d="M177.384 542.814L177.384 514.262L148.833 514.262L148.833 542.814L177.384 542.814Z" stroke="black" stroke-miterlimit="10"/>
<path d="M177.384 571.366L177.384 542.814L148.833 542.814L148.833 571.366L177.384 571.366Z" stroke="black" stroke-miterlimit="10"/>
<path d="M177.384 599.917L177.384 571.366L148.833 571.366L148.833 599.917L177.384 599.917Z" stroke="black" stroke-miterlimit="10"/>
<path d="M177.384 628.469L177.384 599.917L148.833 599.917L148.833 628.469L177.384 628.469Z" stroke="black" stroke-miterlimit="10"/>
<path d="M177.384 657.021L177.384 628.469L148.833 628.469L148.833 657.021L177.384 657.021Z" stroke="black" stroke-miterlimit="10"/>
<path d="M177.384 685.573L177.384 657.021L148.833 657.021L148.833 685.573L177.384 685.573Z" stroke="black" stroke-miterlimit="10"/>
<path d="M177.384 714.134L177.384 685.583L148.833 685.583L148.833 714.134L177.384 714.134Z" stroke="black" stroke-miterlimit="10"/>
<path d="M177.384 742.686L177.384 714.134L148.833 714.134L148.833 742.686L177.384 742.686Z" stroke="black" stroke-miterlimit="10"/>
<path d="M177.384 771.238L177.384 742.686L148.833 742.686L148.833 771.238L177.384 771.238Z" stroke="black" stroke-miterlimit="10"/>
<path d="M177.384 799.789L177.384 771.238L148.833 771.238L148.833 799.789L177.384 799.789Z" stroke="black" stroke-miterlimit="10"/>
<path d="M148.823 542.814L148.823 514.262L120.272 514.262L120.272 542.814L148.823 542.814Z" stroke="black" stroke-miterlimit="10"/>
<path d="M148.823 571.366L148.823 542.814L120.272 542.814L120.272 571.366L148.823 571.366Z" stroke="black" stroke-miterlimit="10"/>
<path d="M148.823 599.917L148.823 571.366L120.272 571.366L120.272 599.917L148.823 599.917Z" stroke="black" stroke-miterlimit="10"/>
<path d="M148.823 628.469L148.823 599.917L120.272 599.917L120.272 628.469L148.823 628.469Z" stroke="black" stroke-miterlimit="10"/>
<path d="M148.823 657.021L148.823 628.469L120.272 628.469L120.272 657.021L148.823 657.021Z" stroke="black" stroke-miterlimit="10"/>
<path d="M148.823 685.573L148.823 657.021L120.272 657.021L120.272 685.573L148.823 685.573Z" stroke="black" stroke-miterlimit="10"/>
<path d="M148.823 714.134L148.823 685.583L120.272 685.583L120.272 714.134L148.823 714.134Z" stroke="black" stroke-miterlimit="10"/>
<path d="M148.823 742.686L148.823 714.134L120.272 714.134L120.272 742.686L148.823 742.686Z" stroke="black" stroke-miterlimit="10"/>
<path d="M148.823 771.238L148.823 742.686L120.272 742.686L120.272 771.238L148.823 771.238Z" stroke="black" stroke-miterlimit="10"/>
<path d="M148.823 799.789L148.823 771.238L120.272 771.238L120.272 799.789L148.823 799.789Z" stroke="black" stroke-miterlimit="10"/>
<path d="M120.272 542.814L120.272 514.262L91.7214 514.262L91.7214 542.814L120.272 542.814Z" stroke="black" stroke-miterlimit="10"/>
<path d="M120.272 571.366L120.272 542.814L91.7214 542.814L91.7214 571.366L120.272 571.366Z" stroke="black" stroke-miterlimit="10"/>
<path d="M120.272 599.917L120.272 571.366L91.7214 571.366L91.7214 599.917L120.272 599.917Z" stroke="black" stroke-miterlimit="10"/>
<path d="M120.272 628.469L120.272 599.917L91.7214 599.917L91.7214 628.469L120.272 628.469Z" stroke="black" stroke-miterlimit="10"/>
<path d="M120.272 657.021L120.272 628.469L91.7214 628.469L91.7214 657.021L120.272 657.021Z" stroke="black" stroke-miterlimit="10"/>
<path d="M120.272 685.573L120.272 657.021L91.7214 657.021L91.7214 685.573L120.272 685.573Z" stroke="black" stroke-miterlimit="10"/>
<path d="M120.272 714.134L120.272 685.583L91.7214 685.583L91.7214 714.134L120.272 714.134Z" stroke="black" stroke-miterlimit="10"/>
<path d="M120.272 742.686L120.272 714.134L91.7214 714.134L91.7214 742.686L120.272 742.686Z" stroke="black" stroke-miterlimit="10"/>
<path d="M120.272 771.238L120.272 742.686L91.7214 742.686L91.7214 771.238L120.272 771.238Z" stroke="black" stroke-miterlimit="10"/>
<path d="M120.272 799.789L120.272 771.238L91.7214 771.238L91.7214 799.789L120.272 799.789Z" stroke="black" stroke-miterlimit="10"/>
<path d="M91.7214 542.814L91.7214 514.262L63.1706 514.262L63.1706 542.814L91.7214 542.814Z" stroke="black" stroke-miterlimit="10"/>
<path d="M91.7214 571.366L91.7214 542.814L63.1706 542.814L63.1706 571.366L91.7214 571.366Z" stroke="black" stroke-miterlimit="10"/>
<path d="M91.7214 599.917L91.7214 571.366L63.1706 571.366L63.1706 599.917L91.7214 599.917Z" stroke="black" stroke-miterlimit="10"/>
<path d="M91.7214 628.469L91.7214 599.917L63.1706 599.917L63.1706 628.469L91.7214 628.469Z" stroke="black" stroke-miterlimit="10"/>
<path d="M91.7214 657.021L91.7214 628.469L63.1706 628.469L63.1706 657.021L91.7214 657.021Z" stroke="black" stroke-miterlimit="10"/>
<path d="M91.7214 685.573L91.7214 657.021L63.1706 657.021L63.1706 685.573L91.7214 685.573Z" stroke="black" stroke-miterlimit="10"/>
<path d="M91.7214 714.134L91.7214 685.583L63.1706 685.583L63.1706 714.134L91.7214 714.134Z" stroke="black" stroke-miterlimit="10"/>
<path d="M91.7214 742.686L91.7214 714.134L63.1706 714.134L63.1706 742.686L91.7214 742.686Z" stroke="black" stroke-miterlimit="10"/>
<path d="M91.7214 771.238L91.7214 742.686L63.1706 742.686L63.1706 771.238L91.7214 771.238Z" stroke="black" stroke-miterlimit="10"/>
<path d="M91.7214 799.789L91.7214 771.238L63.1706 771.238L63.1706 799.789L91.7214 799.789Z" stroke="black" stroke-miterlimit="10"/>
<path d="M63.1707 542.814L63.1707 514.262L34.6198 514.262L34.6198 542.814L63.1707 542.814Z" stroke="black" stroke-miterlimit="10"/>
<path d="M63.1707 571.366L63.1707 542.814L34.6198 542.814L34.6198 571.366L63.1707 571.366Z" stroke="black" stroke-miterlimit="10"/>
<path d="M63.1707 599.917L63.1707 571.366L34.6198 571.366L34.6198 599.917L63.1707 599.917Z" stroke="black" stroke-miterlimit="10"/>
<path d="M63.1707 628.469L63.1707 599.917L34.6198 599.917L34.6198 628.469L63.1707 628.469Z" stroke="black" stroke-miterlimit="10"/>
<path d="M63.1707 657.021L63.1707 628.469L34.6198 628.469L34.6198 657.021L63.1707 657.021Z" stroke="black" stroke-miterlimit="10"/>
<path d="M63.1707 685.573L63.1707 657.021L34.6198 657.021L34.6198 685.573L63.1707 685.573Z" stroke="black" stroke-miterlimit="10"/>
<path d="M63.1707 714.134L63.1707 685.583L34.6198 685.583L34.6198 714.134L63.1707 714.134Z" stroke="black" stroke-miterlimit="10"/>
<path d="M63.1707 742.686L63.1707 714.134L34.6198 714.134L34.6198 742.686L63.1707 742.686Z" stroke="black" stroke-miterlimit="10"/>
<path d="M63.1707 771.238L63.1707 742.686L34.6198 742.686L34.6198 771.238L63.1707 771.238Z" stroke="black" stroke-miterlimit="10"/>
<path d="M63.1707 799.789L63.1707 771.238L34.6198 771.238L34.6198 799.789L63.1707 799.789Z" stroke="black" stroke-miterlimit="10"/>
<path d="M34.6199 542.814L34.6199 514.262L6.06905 514.262L6.06904 542.814L34.6199 542.814Z" stroke="black" stroke-miterlimit="10"/>
<path d="M34.6199 571.366L34.6199 542.814L6.06905 542.814L6.06904 571.366L34.6199 571.366Z" stroke="black" stroke-miterlimit="10"/>
<path d="M34.6199 599.917L34.6199 571.366L6.06905 571.366L6.06904 599.917L34.6199 599.917Z" stroke="black" stroke-miterlimit="10"/>
<path d="M34.6199 628.469L34.6199 599.917L6.06905 599.917L6.06904 628.469L34.6199 628.469Z" stroke="black" stroke-miterlimit="10"/>
<path d="M34.6199 657.021L34.6199 628.469L6.06905 628.469L6.06904 657.021L34.6199 657.021Z" stroke="black" stroke-miterlimit="10"/>
<path d="M34.6199 685.573L34.6199 657.021L6.06905 657.021L6.06904 685.573L34.6199 685.573Z" stroke="black" stroke-miterlimit="10"/>
<path d="M34.6199 714.134L34.6199 685.583L6.06905 685.583L6.06904 714.134L34.6199 714.134Z" stroke="black" stroke-miterlimit="10"/>
<path d="M34.6199 742.686L34.6199 714.134L6.06905 714.134L6.06904 742.686L34.6199 742.686Z" stroke="black" stroke-miterlimit="10"/>
<path d="M34.6199 771.238L34.6199 742.686L6.06905 742.686L6.06904 771.238L34.6199 771.238Z" stroke="black" stroke-miterlimit="10"/>
<path d="M34.6199 799.789L34.6199 771.238L6.06905 771.238L6.06904 799.789L34.6199 799.789Z" stroke="black" stroke-miterlimit="10"/>
<path d="M6.06909 542.814L6.06909 514.262L-22.4817 514.262L-22.4817 542.814L6.06909 542.814Z" stroke="black" stroke-miterlimit="10"/>
<path d="M6.06909 571.366L6.06909 542.814L-22.4817 542.814L-22.4817 571.366L6.06909 571.366Z" stroke="black" stroke-miterlimit="10"/>
<path d="M6.06909 599.917L6.06909 571.366L-22.4817 571.366L-22.4817 599.917L6.06909 599.917Z" stroke="black" stroke-miterlimit="10"/>
<path d="M6.06909 628.469L6.06909 599.917L-22.4817 599.917L-22.4817 628.469L6.06909 628.469Z" stroke="black" stroke-miterlimit="10"/>
<path d="M6.06909 657.021L6.06909 628.469L-22.4817 628.469L-22.4817 657.021L6.06909 657.021Z" stroke="black" stroke-miterlimit="10"/>
<path d="M6.06909 685.573L6.06909 657.021L-22.4817 657.021L-22.4817 685.573L6.06909 685.573Z" stroke="black" stroke-miterlimit="10"/>
<path d="M6.06909 714.134L6.06909 685.583L-22.4817 685.583L-22.4817 714.134L6.06909 714.134Z" stroke="black" stroke-miterlimit="10"/>
<path d="M6.06909 742.686L6.06909 714.134L-22.4817 714.134L-22.4817 742.686L6.06909 742.686Z" stroke="black" stroke-miterlimit="10"/>
<path d="M6.06909 771.238L6.06909 742.686L-22.4817 742.686L-22.4817 771.238L6.06909 771.238Z" stroke="black" stroke-miterlimit="10"/>
<path d="M6.06909 799.789L6.06909 771.238L-22.4817 771.238L-22.4817 799.789L6.06909 799.789Z" stroke="black" stroke-miterlimit="10"/>
<path d="M520.138 656.814L520.138 628.262L491.587 628.262L491.587 656.814L520.138 656.814Z" stroke="black" stroke-miterlimit="10"/>
<path d="M520.138 685.366L520.138 656.814L491.587 656.814L491.587 685.366L520.138 685.366Z" stroke="black" stroke-miterlimit="10"/>
<path d="M520.138 713.918L520.138 685.366L491.587 685.366L491.587 713.918L520.138 713.918Z" stroke="black" stroke-miterlimit="10"/>
<path d="M520.138 742.469L520.138 713.917L491.587 713.917L491.587 742.469L520.138 742.469Z" stroke="black" stroke-miterlimit="10"/>
<path d="M520.138 771.021L520.138 742.469L491.587 742.469L491.587 771.021L520.138 771.021Z" stroke="black" stroke-miterlimit="10"/>
<path d="M520.138 799.573L520.138 771.021L491.587 771.021L491.587 799.573L520.138 799.573Z" stroke="black" stroke-miterlimit="10"/>
<path d="M520.138 828.134L520.138 799.583L491.587 799.583L491.587 828.134L520.138 828.134Z" stroke="black" stroke-miterlimit="10"/>
<path d="M491.587 656.814L491.587 628.262L463.036 628.262L463.036 656.814L491.587 656.814Z" stroke="black" stroke-miterlimit="10"/>
<path d="M491.587 685.366L491.587 656.814L463.036 656.814L463.036 685.366L491.587 685.366Z" stroke="black" stroke-miterlimit="10"/>
<path d="M491.587 713.917L491.587 685.366L463.036 685.366L463.036 713.917L491.587 713.917Z" stroke="black" stroke-miterlimit="10"/>
<path d="M491.587 742.469L491.587 713.917L463.036 713.917L463.036 742.469L491.587 742.469Z" stroke="black" stroke-miterlimit="10"/>
<path d="M491.587 771.021L491.587 742.469L463.036 742.469L463.036 771.021L491.587 771.021Z" stroke="black" stroke-miterlimit="10"/>
<path d="M491.587 799.573L491.587 771.021L463.036 771.021L463.036 799.573L491.587 799.573Z" stroke="black" stroke-miterlimit="10"/>
<path d="M491.587 828.134L491.587 799.583L463.036 799.583L463.036 828.134L491.587 828.134Z" stroke="black" stroke-miterlimit="10"/>
<path d="M463.036 656.814L463.036 628.262L434.486 628.262L434.486 656.814L463.036 656.814Z" stroke="black" stroke-miterlimit="10"/>
<path d="M463.036 685.366L463.036 656.814L434.486 656.814L434.486 685.366L463.036 685.366Z" stroke="black" stroke-miterlimit="10"/>
<path d="M463.036 713.917L463.036 685.366L434.486 685.366L434.486 713.917L463.036 713.917Z" stroke="black" stroke-miterlimit="10"/>
<path d="M463.036 742.469L463.036 713.917L434.486 713.917L434.486 742.469L463.036 742.469Z" stroke="black" stroke-miterlimit="10"/>
<path d="M463.036 771.021L463.036 742.469L434.486 742.469L434.486 771.021L463.036 771.021Z" stroke="black" stroke-miterlimit="10"/>
<path d="M463.036 799.573L463.036 771.021L434.486 771.021L434.486 799.573L463.036 799.573Z" stroke="black" stroke-miterlimit="10"/>
<path d="M463.036 828.134L463.036 799.583L434.486 799.583L434.486 828.134L463.036 828.134Z" stroke="black" stroke-miterlimit="10"/>
<path d="M434.485 656.814L434.485 628.262L405.935 628.262L405.935 656.814L434.485 656.814Z" stroke="black" stroke-miterlimit="10"/>
<path d="M434.485 685.366L434.485 656.814L405.935 656.814L405.935 685.366L434.485 685.366Z" stroke="black" stroke-miterlimit="10"/>
<path d="M434.485 713.917L434.485 685.366L405.935 685.366L405.935 713.917L434.485 713.917Z" stroke="black" stroke-miterlimit="10"/>
<path d="M434.485 742.469L434.485 713.917L405.935 713.917L405.935 742.469L434.485 742.469Z" stroke="black" stroke-miterlimit="10"/>
<path d="M434.485 771.021L434.485 742.469L405.935 742.469L405.935 771.021L434.485 771.021Z" stroke="black" stroke-miterlimit="10"/>
<path d="M434.485 799.573L434.485 771.021L405.935 771.021L405.935 799.573L434.485 799.573Z" stroke="black" stroke-miterlimit="10"/>
<path d="M434.485 828.134L434.485 799.583L405.935 799.583L405.935 828.134L434.485 828.134Z" stroke="black" stroke-miterlimit="10"/>
<path d="M405.935 656.814L405.935 628.262L377.384 628.262L377.384 656.814L405.935 656.814Z" stroke="black" stroke-miterlimit="10"/>
<path d="M405.935 685.366L405.935 656.814L377.384 656.814L377.384 685.366L405.935 685.366Z" stroke="black" stroke-miterlimit="10"/>
<path d="M405.935 713.917L405.935 685.366L377.384 685.366L377.384 713.917L405.935 713.917Z" stroke="black" stroke-miterlimit="10"/>
<path d="M405.935 742.469L405.935 713.917L377.384 713.917L377.384 742.469L405.935 742.469Z" stroke="black" stroke-miterlimit="10"/>
<path d="M405.935 771.021L405.935 742.469L377.384 742.469L377.384 771.021L405.935 771.021Z" stroke="black" stroke-miterlimit="10"/>
<path d="M405.935 799.573L405.935 771.021L377.384 771.021L377.384 799.573L405.935 799.573Z" stroke="black" stroke-miterlimit="10"/>
<path d="M405.935 828.134L405.935 799.583L377.384 799.583L377.384 828.134L405.935 828.134Z" stroke="black" stroke-miterlimit="10"/>
<path d="M377.384 656.814L377.384 628.262L348.833 628.262L348.833 656.814L377.384 656.814Z" stroke="black" stroke-miterlimit="10"/>
<path d="M377.384 685.366L377.384 656.814L348.833 656.814L348.833 685.366L377.384 685.366Z" stroke="black" stroke-miterlimit="10"/>
<path d="M377.384 713.917L377.384 685.366L348.833 685.366L348.833 713.917L377.384 713.917Z" stroke="black" stroke-miterlimit="10"/>
<path d="M377.384 742.469L377.384 713.917L348.833 713.917L348.833 742.469L377.384 742.469Z" stroke="black" stroke-miterlimit="10"/>
<path d="M377.384 771.021L377.384 742.469L348.833 742.469L348.833 771.021L377.384 771.021Z" stroke="black" stroke-miterlimit="10"/>
<path d="M377.384 799.573L377.384 771.021L348.833 771.021L348.833 799.573L377.384 799.573Z" stroke="black" stroke-miterlimit="10"/>
<path d="M377.384 828.134L377.384 799.583L348.833 799.583L348.833 828.134L377.384 828.134Z" stroke="black" stroke-miterlimit="10"/>
<path d="M348.823 656.814L348.823 628.262L320.272 628.262L320.272 656.814L348.823 656.814Z" stroke="black" stroke-miterlimit="10"/>
<path d="M348.823 685.366L348.823 656.814L320.272 656.814L320.272 685.366L348.823 685.366Z" stroke="black" stroke-miterlimit="10"/>
<path d="M348.823 713.917L348.823 685.366L320.272 685.366L320.272 713.917L348.823 713.917Z" stroke="black" stroke-miterlimit="10"/>
<path d="M348.823 742.469L348.823 713.917L320.272 713.917L320.272 742.469L348.823 742.469Z" stroke="black" stroke-miterlimit="10"/>
<path d="M348.823 771.021L348.823 742.469L320.272 742.469L320.272 771.021L348.823 771.021Z" stroke="black" stroke-miterlimit="10"/>
<path d="M348.823 799.573L348.823 771.021L320.272 771.021L320.272 799.573L348.823 799.573Z" stroke="black" stroke-miterlimit="10"/>
<path d="M348.823 828.134L348.823 799.583L320.272 799.583L320.272 828.134L348.823 828.134Z" stroke="black" stroke-miterlimit="10"/>
<path d="M320.272 656.814L320.272 628.262L291.721 628.262L291.721 656.814L320.272 656.814Z" stroke="black" stroke-miterlimit="10"/>
<path d="M320.272 685.366L320.272 656.814L291.721 656.814L291.721 685.366L320.272 685.366Z" stroke="black" stroke-miterlimit="10"/>
<path d="M320.272 713.917L320.272 685.366L291.721 685.366L291.721 713.917L320.272 713.917Z" stroke="black" stroke-miterlimit="10"/>
<path d="M320.272 742.469L320.272 713.917L291.721 713.917L291.721 742.469L320.272 742.469Z" stroke="black" stroke-miterlimit="10"/>
<path d="M320.272 771.021L320.272 742.469L291.721 742.469L291.721 771.021L320.272 771.021Z" stroke="black" stroke-miterlimit="10"/>
<path d="M320.272 799.573L320.272 771.021L291.721 771.021L291.721 799.573L320.272 799.573Z" stroke="black" stroke-miterlimit="10"/>
<path d="M320.272 828.134L320.272 799.583L291.721 799.583L291.721 828.134L320.272 828.134Z" stroke="black" stroke-miterlimit="10"/>
<path d="M291.721 656.814L291.721 628.262L263.171 628.262L263.171 656.814L291.721 656.814Z" stroke="black" stroke-miterlimit="10"/>
<path d="M291.721 685.366L291.721 656.814L263.171 656.814L263.171 685.366L291.721 685.366Z" stroke="black" stroke-miterlimit="10"/>
<path d="M291.721 713.917L291.721 685.366L263.171 685.366L263.171 713.917L291.721 713.917Z" stroke="black" stroke-miterlimit="10"/>
<path d="M291.721 742.469L291.721 713.917L263.171 713.917L263.171 742.469L291.721 742.469Z" stroke="black" stroke-miterlimit="10"/>
<path d="M291.721 771.021L291.721 742.469L263.171 742.469L263.171 771.021L291.721 771.021Z" stroke="black" stroke-miterlimit="10"/>
<path d="M291.721 799.573L291.721 771.021L263.171 771.021L263.171 799.573L291.721 799.573Z" stroke="black" stroke-miterlimit="10"/>
<path d="M291.721 828.134L291.721 799.583L263.171 799.583L263.171 828.134L291.721 828.134Z" stroke="black" stroke-miterlimit="10"/>
<path d="M263.171 656.814L263.171 628.262L234.62 628.262L234.62 656.814L263.171 656.814Z" stroke="black" stroke-miterlimit="10"/>
<path d="M263.171 685.366L263.171 656.814L234.62 656.814L234.62 685.366L263.171 685.366Z" stroke="black" stroke-miterlimit="10"/>
<path d="M263.171 713.917L263.171 685.366L234.62 685.366L234.62 713.917L263.171 713.917Z" stroke="black" stroke-miterlimit="10"/>
<path d="M263.171 742.469L263.171 713.917L234.62 713.917L234.62 742.469L263.171 742.469Z" stroke="black" stroke-miterlimit="10"/>
<path d="M263.171 771.021L263.171 742.469L234.62 742.469L234.62 771.021L263.171 771.021Z" stroke="black" stroke-miterlimit="10"/>
<path d="M263.171 799.573L263.171 771.021L234.62 771.021L234.62 799.573L263.171 799.573Z" stroke="black" stroke-miterlimit="10"/>
<path d="M263.171 828.134L263.171 799.583L234.62 799.583L234.62 828.134L263.171 828.134Z" stroke="black" stroke-miterlimit="10"/>
<path d="M234.62 656.814L234.62 628.262L206.069 628.262L206.069 656.814L234.62 656.814Z" stroke="black" stroke-miterlimit="10"/>
<path d="M234.62 685.366L234.62 656.814L206.069 656.814L206.069 685.366L234.62 685.366Z" stroke="black" stroke-miterlimit="10"/>
<path d="M234.62 713.917L234.62 685.366L206.069 685.366L206.069 713.917L234.62 713.917Z" stroke="black" stroke-miterlimit="10"/>
<path d="M234.62 742.469L234.62 713.917L206.069 713.917L206.069 742.469L234.62 742.469Z" stroke="black" stroke-miterlimit="10"/>
<path d="M234.62 771.021L234.62 742.469L206.069 742.469L206.069 771.021L234.62 771.021Z" stroke="black" stroke-miterlimit="10"/>
<path d="M234.62 799.573L234.62 771.021L206.069 771.021L206.069 799.573L234.62 799.573Z" stroke="black" stroke-miterlimit="10"/>
<path d="M234.62 828.134L234.62 799.583L206.069 799.583L206.069 828.134L234.62 828.134Z" stroke="black" stroke-miterlimit="10"/>
<path d="M206.069 656.814L206.069 628.262L177.518 628.262L177.518 656.814L206.069 656.814Z" stroke="black" stroke-miterlimit="10"/>
<path d="M206.069 685.366L206.069 656.814L177.518 656.814L177.518 685.366L206.069 685.366Z" stroke="black" stroke-miterlimit="10"/>
<path d="M206.069 713.918L206.069 685.366L177.518 685.366L177.518 713.918L206.069 713.918Z" stroke="black" stroke-miterlimit="10"/>
<path d="M206.069 742.469L206.069 713.917L177.518 713.917L177.518 742.469L206.069 742.469Z" stroke="black" stroke-miterlimit="10"/>
<path d="M206.069 771.021L206.069 742.469L177.518 742.469L177.518 771.021L206.069 771.021Z" stroke="black" stroke-miterlimit="10"/>
<path d="M206.069 799.573L206.069 771.021L177.518 771.021L177.518 799.573L206.069 799.573Z" stroke="black" stroke-miterlimit="10"/>
<path d="M206.069 828.134L206.069 799.583L177.518 799.583L177.518 828.134L206.069 828.134Z" stroke="black" stroke-miterlimit="10"/>
<path d="M177.518 656.814L177.518 628.262L148.967 628.262L148.967 656.814L177.518 656.814Z" stroke="black" stroke-miterlimit="10"/>
<path d="M177.518 685.366L177.518 656.814L148.967 656.814L148.967 685.366L177.518 685.366Z" stroke="black" stroke-miterlimit="10"/>
<path d="M177.518 713.918L177.518 685.366L148.967 685.366L148.967 713.918L177.518 713.918Z" stroke="black" stroke-miterlimit="10"/>
<path d="M177.518 742.469L177.518 713.917L148.967 713.917L148.967 742.469L177.518 742.469Z" stroke="black" stroke-miterlimit="10"/>
<path d="M177.518 771.021L177.518 742.469L148.967 742.469L148.967 771.021L177.518 771.021Z" stroke="black" stroke-miterlimit="10"/>
<path d="M177.518 799.573L177.518 771.021L148.967 771.021L148.967 799.573L177.518 799.573Z" stroke="black" stroke-miterlimit="10"/>
<path d="M177.518 828.134L177.518 799.583L148.967 799.583L148.967 828.134L177.518 828.134Z" stroke="black" stroke-miterlimit="10"/>
<path d="M148.967 656.814L148.967 628.262L120.416 628.262L120.416 656.814L148.967 656.814Z" stroke="black" stroke-miterlimit="10"/>
<path d="M148.967 685.366L148.967 656.814L120.416 656.814L120.416 685.366L148.967 685.366Z" stroke="black" stroke-miterlimit="10"/>
<path d="M148.967 713.917L148.967 685.366L120.416 685.366L120.416 713.917L148.967 713.917Z" stroke="black" stroke-miterlimit="10"/>
<path d="M148.967 742.469L148.967 713.917L120.416 713.917L120.416 742.469L148.967 742.469Z" stroke="black" stroke-miterlimit="10"/>
<path d="M148.967 771.021L148.967 742.469L120.416 742.469L120.416 771.021L148.967 771.021Z" stroke="black" stroke-miterlimit="10"/>
<path d="M148.967 799.573L148.967 771.021L120.416 771.021L120.416 799.573L148.967 799.573Z" stroke="black" stroke-miterlimit="10"/>
<path d="M148.967 828.134L148.967 799.583L120.416 799.583L120.416 828.134L148.967 828.134Z" stroke="black" stroke-miterlimit="10"/>
<path d="M120.417 656.814L120.417 628.262L91.8657 628.262L91.8657 656.814L120.417 656.814Z" stroke="black" stroke-miterlimit="10"/>
<path d="M120.417 685.366L120.417 656.814L91.8657 656.814L91.8657 685.366L120.417 685.366Z" stroke="black" stroke-miterlimit="10"/>
<path d="M120.417 713.917L120.417 685.366L91.8657 685.366L91.8657 713.917L120.417 713.917Z" stroke="black" stroke-miterlimit="10"/>
<path d="M120.417 742.469L120.417 713.917L91.8657 713.917L91.8657 742.469L120.417 742.469Z" stroke="black" stroke-miterlimit="10"/>
<path d="M120.417 771.021L120.417 742.469L91.8657 742.469L91.8657 771.021L120.417 771.021Z" stroke="black" stroke-miterlimit="10"/>
<path d="M120.417 799.573L120.417 771.021L91.8657 771.021L91.8657 799.573L120.417 799.573Z" stroke="black" stroke-miterlimit="10"/>
<path d="M120.417 828.134L120.417 799.583L91.8657 799.583L91.8657 828.134L120.417 828.134Z" stroke="black" stroke-miterlimit="10"/>
<path d="M91.8657 656.814L91.8657 628.262L63.3149 628.262L63.3149 656.814L91.8657 656.814Z" stroke="black" stroke-miterlimit="10"/>
<path d="M91.8657 685.366L91.8657 656.814L63.3149 656.814L63.3149 685.366L91.8657 685.366Z" stroke="black" stroke-miterlimit="10"/>
<path d="M91.8657 713.917L91.8657 685.366L63.3149 685.366L63.3149 713.917L91.8657 713.917Z" stroke="black" stroke-miterlimit="10"/>
<path d="M91.8657 742.469L91.8657 713.917L63.3149 713.917L63.3149 742.469L91.8657 742.469Z" stroke="black" stroke-miterlimit="10"/>
<path d="M91.8657 771.021L91.8657 742.469L63.3149 742.469L63.3149 771.021L91.8657 771.021Z" stroke="black" stroke-miterlimit="10"/>
<path d="M91.8657 799.573L91.8657 771.021L63.3149 771.021L63.3149 799.573L91.8657 799.573Z" stroke="black" stroke-miterlimit="10"/>
<path d="M91.8657 828.134L91.8657 799.583L63.3149 799.583L63.3149 828.134L91.8657 828.134Z" stroke="black" stroke-miterlimit="10"/>
<path d="M63.3147 656.814L63.3147 628.262L34.7639 628.262L34.7639 656.814L63.3147 656.814Z" stroke="black" stroke-miterlimit="10"/>
<path d="M63.3147 685.366L63.3147 656.814L34.7639 656.814L34.7639 685.366L63.3147 685.366Z" stroke="black" stroke-miterlimit="10"/>
<path d="M63.3147 713.917L63.3147 685.366L34.7639 685.366L34.7639 713.917L63.3147 713.917Z" stroke="black" stroke-miterlimit="10"/>
<path d="M63.3147 742.469L63.3147 713.917L34.7639 713.917L34.7639 742.469L63.3147 742.469Z" stroke="black" stroke-miterlimit="10"/>
<path d="M63.3147 771.021L63.3147 742.469L34.7639 742.469L34.7639 771.021L63.3147 771.021Z" stroke="black" stroke-miterlimit="10"/>
<path d="M63.3147 799.573L63.3147 771.021L34.7639 771.021L34.7639 799.573L63.3147 799.573Z" stroke="black" stroke-miterlimit="10"/>
<path d="M63.3147 828.134L63.3147 799.583L34.7639 799.583L34.7639 828.134L63.3147 828.134Z" stroke="black" stroke-miterlimit="10"/>
<path d="M34.7541 656.814L34.7542 628.262L6.20329 628.262L6.20329 656.814L34.7541 656.814Z" stroke="black" stroke-miterlimit="10"/>
<path d="M34.7541 685.366L34.7542 656.814L6.20329 656.814L6.20329 685.366L34.7541 685.366Z" stroke="black" stroke-miterlimit="10"/>
<path d="M34.7541 713.917L34.7542 685.366L6.20329 685.366L6.20329 713.917L34.7541 713.917Z" stroke="black" stroke-miterlimit="10"/>
<path d="M34.7541 742.469L34.7542 713.917L6.20329 713.917L6.20329 742.469L34.7541 742.469Z" stroke="black" stroke-miterlimit="10"/>
<path d="M34.7541 771.021L34.7542 742.469L6.20329 742.469L6.20329 771.021L34.7541 771.021Z" stroke="black" stroke-miterlimit="10"/>
<path d="M34.7541 799.573L34.7542 771.021L6.20329 771.021L6.20329 799.573L34.7541 799.573Z" stroke="black" stroke-miterlimit="10"/>
<path d="M34.7541 828.134L34.7542 799.583L6.20329 799.583L6.20329 828.134L34.7541 828.134Z" stroke="black" stroke-miterlimit="10"/>
<path d="M6.20337 656.814L6.20337 628.262L-22.3474 628.262L-22.3474 656.814L6.20337 656.814Z" stroke="black" stroke-miterlimit="10"/>
<path d="M6.20337 685.366L6.20337 656.814L-22.3474 656.814L-22.3474 685.366L6.20337 685.366Z" stroke="black" stroke-miterlimit="10"/>
<path d="M6.20337 713.917L6.20337 685.366L-22.3474 685.366L-22.3474 713.917L6.20337 713.917Z" stroke="black" stroke-miterlimit="10"/>
<path d="M6.20337 742.469L6.20337 713.917L-22.3474 713.917L-22.3474 742.469L6.20337 742.469Z" stroke="black" stroke-miterlimit="10"/>
<path d="M6.20337 771.021L6.20337 742.469L-22.3474 742.469L-22.3474 771.021L6.20337 771.021Z" stroke="black" stroke-miterlimit="10"/>
<path d="M6.20337 799.573L6.20337 771.021L-22.3474 771.021L-22.3474 799.573L6.20337 799.573Z" stroke="black" stroke-miterlimit="10"/>
<path d="M6.20337 828.134L6.20337 799.583L-22.3474 799.583L-22.3474 828.134L6.20337 828.134Z" stroke="black" stroke-miterlimit="10"/>
<path d="M91.1379 28.8141L91.1379 0.262329L62.5871 0.262328L62.5871 28.8141L91.1379 28.8141Z" stroke="black" stroke-miterlimit="10"/>
<path d="M91.1379 57.3658L91.1379 28.8141L62.5871 28.8141L62.5871 57.3658L91.1379 57.3658Z" stroke="black" stroke-miterlimit="10"/>
<path d="M91.1379 85.9176L91.1379 57.3658L62.5871 57.3658L62.5871 85.9176L91.1379 85.9176Z" stroke="black" stroke-miterlimit="10"/>
<path d="M91.1379 114.469L91.1379 85.9175L62.5871 85.9175L62.5871 114.469L91.1379 114.469Z" stroke="black" stroke-miterlimit="10"/>
<path d="M91.1379 143.021L91.1379 114.469L62.5871 114.469L62.5871 143.021L91.1379 143.021Z" stroke="black" stroke-miterlimit="10"/>
<path d="M91.1379 171.573L91.1379 143.021L62.5871 143.021L62.5871 171.573L91.1379 171.573Z" stroke="black" stroke-miterlimit="10"/>
<path d="M91.1379 200.134L91.1379 171.583L62.5871 171.583L62.5871 200.134L91.1379 200.134Z" stroke="black" stroke-miterlimit="10"/>
<path d="M91.1379 228.686L91.1379 200.134L62.5871 200.134L62.5871 228.686L91.1379 228.686Z" stroke="black" stroke-miterlimit="10"/>
<path d="M91.1379 257.238L91.1379 228.686L62.5871 228.686L62.5871 257.238L91.1379 257.238Z" stroke="black" stroke-miterlimit="10"/>
<path d="M91.1379 285.789L91.1379 257.238L62.5871 257.238L62.5871 285.789L91.1379 285.789Z" stroke="black" stroke-miterlimit="10"/>
<path d="M91.1379 314.341L91.1379 285.789L62.5871 285.789L62.5871 314.341L91.1379 314.341Z" stroke="black" stroke-miterlimit="10"/>
<path d="M91.1379 342.893L91.1379 314.341L62.5871 314.341L62.5871 342.893L91.1379 342.893Z" stroke="black" stroke-miterlimit="10"/>
<path d="M91.1379 371.445L91.1379 342.893L62.5871 342.893L62.5871 371.445L91.1379 371.445Z" stroke="black" stroke-miterlimit="10"/>
<path d="M91.1379 399.996L91.1379 371.445L62.5871 371.445L62.5871 399.996L91.1379 399.996Z" stroke="black" stroke-miterlimit="10"/>
<path d="M91.1379 428.548L91.1379 399.996L62.5871 399.996L62.5871 428.548L91.1379 428.548Z" stroke="black" stroke-miterlimit="10"/>
<path d="M91.1379 457.1L91.1379 428.548L62.5871 428.548L62.5871 457.1L91.1379 457.1Z" stroke="black" stroke-miterlimit="10"/>
<path d="M91.1379 485.651L91.1379 457.1L62.5871 457.1L62.5871 485.651L91.1379 485.651Z" stroke="black" stroke-miterlimit="10"/>
<path d="M91.1379 514.213L91.1379 485.661L62.5871 485.661L62.5871 514.213L91.1379 514.213Z" stroke="black" stroke-miterlimit="10"/>
<path d="M91.1379 542.765L91.1379 514.213L62.5871 514.213L62.5871 542.765L91.1379 542.765Z" stroke="black" stroke-miterlimit="10"/>
<path d="M91.1379 571.316L91.1379 542.765L62.5871 542.765L62.5871 571.316L91.1379 571.316Z" stroke="black" stroke-miterlimit="10"/>
<path d="M91.1379 599.868L91.1379 571.316L62.5871 571.316L62.5871 599.868L91.1379 599.868Z" stroke="black" stroke-miterlimit="10"/>
<path d="M91.1379 628.42L91.1379 599.868L62.5871 599.868L62.5871 628.42L91.1379 628.42Z" stroke="black" stroke-miterlimit="10"/>
<path d="M62.5872 28.8141L62.5872 0.262329L34.0363 0.262328L34.0363 28.8141L62.5872 28.8141Z" stroke="black" stroke-miterlimit="10"/>
<path d="M62.5872 57.3658L62.5872 28.8141L34.0363 28.8141L34.0363 57.3658L62.5872 57.3658Z" stroke="black" stroke-miterlimit="10"/>
<path d="M62.5872 85.9174L62.5872 57.3657L34.0363 57.3657L34.0363 85.9174L62.5872 85.9174Z" stroke="black" stroke-miterlimit="10"/>
<path d="M62.5872 114.469L62.5872 85.9175L34.0363 85.9175L34.0363 114.469L62.5872 114.469Z" stroke="black" stroke-miterlimit="10"/>
<path d="M62.5872 143.021L62.5872 114.469L34.0363 114.469L34.0363 143.021L62.5872 143.021Z" stroke="black" stroke-miterlimit="10"/>
<path d="M62.5872 171.573L62.5872 143.021L34.0363 143.021L34.0363 171.573L62.5872 171.573Z" stroke="black" stroke-miterlimit="10"/>
<path d="M62.5872 200.134L62.5872 171.583L34.0363 171.583L34.0363 200.134L62.5872 200.134Z" stroke="black" stroke-miterlimit="10"/>
<path d="M62.5872 228.686L62.5872 200.134L34.0363 200.134L34.0363 228.686L62.5872 228.686Z" stroke="black" stroke-miterlimit="10"/>
<path d="M62.5872 257.238L62.5872 228.686L34.0363 228.686L34.0363 257.238L62.5872 257.238Z" stroke="black" stroke-miterlimit="10"/>
<path d="M62.5872 285.789L62.5872 257.238L34.0363 257.238L34.0363 285.789L62.5872 285.789Z" stroke="black" stroke-miterlimit="10"/>
<path d="M62.5872 314.341L62.5872 285.789L34.0363 285.789L34.0363 314.341L62.5872 314.341Z" stroke="black" stroke-miterlimit="10"/>
<path d="M62.5872 342.893L62.5872 314.341L34.0363 314.341L34.0363 342.893L62.5872 342.893Z" stroke="black" stroke-miterlimit="10"/>
<path d="M62.5872 371.445L62.5872 342.893L34.0363 342.893L34.0363 371.445L62.5872 371.445Z" stroke="black" stroke-miterlimit="10"/>
<path d="M62.5872 399.996L62.5872 371.445L34.0363 371.445L34.0363 399.996L62.5872 399.996Z" stroke="black" stroke-miterlimit="10"/>
<path d="M62.5872 428.548L62.5872 399.996L34.0363 399.996L34.0363 428.548L62.5872 428.548Z" stroke="black" stroke-miterlimit="10"/>
<path d="M62.5872 457.1L62.5872 428.548L34.0363 428.548L34.0363 457.1L62.5872 457.1Z" stroke="black" stroke-miterlimit="10"/>
<path d="M62.5872 485.651L62.5872 457.1L34.0363 457.1L34.0363 485.651L62.5872 485.651Z" stroke="black" stroke-miterlimit="10"/>
<path d="M62.5872 514.213L62.5872 485.661L34.0363 485.661L34.0363 514.213L62.5872 514.213Z" stroke="black" stroke-miterlimit="10"/>
<path d="M62.5872 542.765L62.5872 514.213L34.0363 514.213L34.0363 542.765L62.5872 542.765Z" stroke="black" stroke-miterlimit="10"/>
<path d="M62.5872 571.316L62.5872 542.765L34.0363 542.765L34.0363 571.316L62.5872 571.316Z" stroke="black" stroke-miterlimit="10"/>
<path d="M62.5872 599.868L62.5872 571.316L34.0363 571.316L34.0363 599.868L62.5872 599.868Z" stroke="black" stroke-miterlimit="10"/>
<path d="M62.5872 628.42L62.5872 599.868L34.0363 599.868L34.0363 628.42L62.5872 628.42Z" stroke="black" stroke-miterlimit="10"/>
<path d="M34.0364 28.8141L34.0364 0.262329L5.48555 0.262328L5.48555 28.8141L34.0364 28.8141Z" stroke="black" stroke-miterlimit="10"/>
<path d="M34.0364 57.3658L34.0364 28.8141L5.48555 28.8141L5.48555 57.3658L34.0364 57.3658Z" stroke="black" stroke-miterlimit="10"/>
<path d="M34.0364 85.9174L34.0364 57.3657L5.48555 57.3657L5.48555 85.9174L34.0364 85.9174Z" stroke="black" stroke-miterlimit="10"/>
<path d="M34.0364 114.469L34.0364 85.9175L5.48555 85.9175L5.48555 114.469L34.0364 114.469Z" stroke="black" stroke-miterlimit="10"/>
<path d="M34.0364 143.021L34.0364 114.469L5.48555 114.469L5.48555 143.021L34.0364 143.021Z" stroke="black" stroke-miterlimit="10"/>
<path d="M34.0364 171.573L34.0364 143.021L5.48555 143.021L5.48555 171.573L34.0364 171.573Z" stroke="black" stroke-miterlimit="10"/>
<path d="M34.0364 200.134L34.0364 171.583L5.48555 171.583L5.48555 200.134L34.0364 200.134Z" stroke="black" stroke-miterlimit="10"/>
<path d="M34.0364 228.686L34.0364 200.134L5.48555 200.134L5.48555 228.686L34.0364 228.686Z" stroke="black" stroke-miterlimit="10"/>
<path d="M34.0364 257.238L34.0364 228.686L5.48555 228.686L5.48555 257.238L34.0364 257.238Z" stroke="black" stroke-miterlimit="10"/>
<path d="M34.0364 285.789L34.0364 257.238L5.48555 257.238L5.48555 285.789L34.0364 285.789Z" stroke="black" stroke-miterlimit="10"/>
<path d="M34.0364 314.341L34.0364 285.789L5.48555 285.789L5.48555 314.341L34.0364 314.341Z" stroke="black" stroke-miterlimit="10"/>
<path d="M34.0364 342.893L34.0364 314.341L5.48555 314.341L5.48555 342.893L34.0364 342.893Z" stroke="black" stroke-miterlimit="10"/>
<path d="M34.0364 371.445L34.0364 342.893L5.48555 342.893L5.48555 371.445L34.0364 371.445Z" stroke="black" stroke-miterlimit="10"/>
<path d="M34.0364 399.996L34.0364 371.445L5.48555 371.445L5.48555 399.996L34.0364 399.996Z" stroke="black" stroke-miterlimit="10"/>
<path d="M34.0364 428.548L34.0364 399.996L5.48555 399.996L5.48555 428.548L34.0364 428.548Z" stroke="black" stroke-miterlimit="10"/>
<path d="M34.0361 457.1L34.0361 428.548L5.48531 428.548L5.4853 457.1L34.0361 457.1Z" stroke="black" stroke-miterlimit="10"/>
<path d="M34.0361 485.651L34.0361 457.1L5.48531 457.1L5.4853 485.651L34.0361 485.651Z" stroke="black" stroke-miterlimit="10"/>
<path d="M34.0361 514.213L34.0361 485.661L5.48531 485.661L5.4853 514.213L34.0361 514.213Z" stroke="black" stroke-miterlimit="10"/>
<path d="M34.0361 542.765L34.0361 514.213L5.48531 514.213L5.4853 542.765L34.0361 542.765Z" stroke="black" stroke-miterlimit="10"/>
<path d="M34.0361 571.316L34.0361 542.765L5.48531 542.765L5.4853 571.316L34.0361 571.316Z" stroke="black" stroke-miterlimit="10"/>
<path d="M34.0361 599.868L34.0361 571.316L5.48531 571.316L5.4853 599.868L34.0361 599.868Z" stroke="black" stroke-miterlimit="10"/>
<path d="M34.0361 628.42L34.0361 599.868L5.48531 599.868L5.4853 628.42L34.0361 628.42Z" stroke="black" stroke-miterlimit="10"/>
<path d="M5.48535 28.8141L5.48535 0.262329L-23.0655 0.262328L-23.0655 28.8141L5.48535 28.8141Z" stroke="black" stroke-miterlimit="10"/>
<path d="M5.48535 57.3658L5.48535 28.8141L-23.0655 28.8141L-23.0655 57.3658L5.48535 57.3658Z" stroke="black" stroke-miterlimit="10"/>
<path d="M5.48535 85.9174L5.48535 57.3657L-23.0655 57.3657L-23.0655 85.9174L5.48535 85.9174Z" stroke="black" stroke-miterlimit="10"/>
<path d="M5.48535 114.469L5.48535 85.9175L-23.0655 85.9175L-23.0655 114.469L5.48535 114.469Z" stroke="black" stroke-miterlimit="10"/>
<path d="M5.48535 143.021L5.48535 114.469L-23.0655 114.469L-23.0655 143.021L5.48535 143.021Z" stroke="black" stroke-miterlimit="10"/>
<path d="M5.48535 171.573L5.48535 143.021L-23.0655 143.021L-23.0655 171.573L5.48535 171.573Z" stroke="black" stroke-miterlimit="10"/>
<path d="M5.48535 200.134L5.48535 171.583L-23.0655 171.583L-23.0655 200.134L5.48535 200.134Z" stroke="black" stroke-miterlimit="10"/>
<path d="M5.48535 228.686L5.48535 200.134L-23.0655 200.134L-23.0655 228.686L5.48535 228.686Z" stroke="black" stroke-miterlimit="10"/>
<path d="M5.48535 257.238L5.48535 228.686L-23.0655 228.686L-23.0655 257.238L5.48535 257.238Z" stroke="black" stroke-miterlimit="10"/>
<path d="M5.48535 285.789L5.48535 257.238L-23.0655 257.238L-23.0655 285.789L5.48535 285.789Z" stroke="black" stroke-miterlimit="10"/>
<path d="M5.48535 314.341L5.48535 285.789L-23.0655 285.789L-23.0655 314.341L5.48535 314.341Z" stroke="black" stroke-miterlimit="10"/>
<path d="M5.48535 342.893L5.48535 314.341L-23.0655 314.341L-23.0655 342.893L5.48535 342.893Z" stroke="black" stroke-miterlimit="10"/>
<path d="M5.48535 371.445L5.48535 342.893L-23.0655 342.893L-23.0655 371.445L5.48535 371.445Z" stroke="black" stroke-miterlimit="10"/>
<path d="M5.48535 399.996L5.48535 371.445L-23.0655 371.445L-23.0655 399.996L5.48535 399.996Z" stroke="black" stroke-miterlimit="10"/>
<path d="M5.48535 428.548L5.48535 399.996L-23.0655 399.996L-23.0655 428.548L5.48535 428.548Z" stroke="black" stroke-miterlimit="10"/>
<path d="M5.48535 457.1L5.48535 428.548L-23.0655 428.548L-23.0655 457.1L5.48535 457.1Z" stroke="black" stroke-miterlimit="10"/>
<path d="M5.48535 485.651L5.48535 457.1L-23.0655 457.1L-23.0655 485.651L5.48535 485.651Z" stroke="black" stroke-miterlimit="10"/>
<path d="M5.48535 514.213L5.48535 485.661L-23.0655 485.661L-23.0655 514.213L5.48535 514.213Z" stroke="black" stroke-miterlimit="10"/>
<path d="M5.48535 542.765L5.48535 514.213L-23.0655 514.213L-23.0655 542.765L5.48535 542.765Z" stroke="black" stroke-miterlimit="10"/>
<path d="M5.48535 571.316L5.48535 542.765L-23.0655 542.765L-23.0655 571.316L5.48535 571.316Z" stroke="black" stroke-miterlimit="10"/>
<path d="M5.48535 599.868L5.48535 571.316L-23.0655 571.316L-23.0655 599.868L5.48535 599.868Z" stroke="black" stroke-miterlimit="10"/>
<path d="M5.48535 628.42L5.48535 599.868L-23.0655 599.868L-23.0655 628.42L5.48535 628.42Z" stroke="black" stroke-miterlimit="10"/>
</g>
</svg>